<?xml version="1.0" encoding="UTF-8" standalone="no"?>
<!DOCTYPE svg PUBLIC "-//W3C//DTD SVG 1.1//EN" "http://www.w3.org/Graphics/SVG/1.1/DTD/svg11.dtd">
<svg width="100%" height="100%" viewBox="0 0 240 100" version="1.1" xmlns="http://www.w3.org/2000/svg" xmlns:xlink="http://www.w3.org/1999/xlink" xml:space="preserve" xmlns:serif="http://www.serif.com/" style="fill-rule:evenodd;clip-rule:evenodd;stroke-linejoin:round;stroke-miterlimit:2;">
    <g transform="matrix(1,0,0,1,-730,-896)">
        <g transform="matrix(0.413793,0,0,0.413793,558.276,584.828)">
            <g transform="matrix(1.0052,0,0,1.16592,324.532,135.049)">
                <path d="M378.5,529.154C537.727,529.154 667,561.961 667,623.5C667,685.039 537.727,735 378.5,735C219.273,735 90,685.039 90,623.5C90,561.961 219.273,529.154 378.5,529.154Z" style="fill:rgb(224,254,253);"/>
            </g>
            <g transform="matrix(1.0052,0,0,1.16592,324.532,135.049)">
                <path d="M665.48,612.191C666.485,615.846 667,619.616 667,623.5C667,685.039 537.727,735 378.5,735C219.273,735 90,685.039 90,623.5C90,619.616 90.515,615.846 91.52,612.191C106.439,666.695 229.323,713.558 378.5,713.558C527.677,713.558 650.561,666.695 665.48,612.191Z" style="fill:rgb(93,171,220);"/>
            </g>
            <g transform="matrix(1,0,0,1,327,244)">
                <path d="M378,568C504.389,568 610,604 607,628C604.249,650.006 562.689,675.433 497,689C462.81,696.061 420.862,696.019 378,699C255.854,707.496 151.771,672.329 149,628C148.394,618.296 185.907,593.24 244,579C281.695,569.76 328.263,568 378,568ZM391,588C310,587 228,604 228,628C228,656.499 290.207,688 389,688C487.793,688 559,656.499 559,628C559,599.501 489.785,589.22 391,588Z" style="fill:url(#_Linear1);"/>
            </g>
            <g transform="matrix(1.0052,0,0,1.16592,324.532,135.049)">
                <path d="M378.5,529.154C537.727,529.154 667,561.961 667,623.5C667,685.039 537.727,735 378.5,735C219.273,735 90,685.039 90,623.5C90,561.961 219.273,529.154 378.5,529.154ZM378.5,537.159C284.692,537.159 201.428,548.53 149.862,570.859C118.655,584.372 99.285,601.559 99.285,623.5C99.285,645.769 118.865,665.808 150.538,682.503C201.949,709.601 284.974,726.995 378.5,726.995C472.026,726.995 555.051,709.601 606.462,682.503C638.135,665.808 657.715,645.769 657.715,623.5C657.715,601.559 638.345,584.372 607.138,570.859C555.572,548.53 472.308,537.159 378.5,537.159Z" style="fill:rgb(46,10,48);"/>
            </g>
        </g>
    </g>
    <defs>
        <linearGradient id="_Linear1" x1="0" y1="0" x2="1" y2="0" gradientUnits="userSpaceOnUse" gradientTransform="matrix(458.07,0,0,458.07,148.993,628)"><stop offset="0" style="stop-color:rgb(129,195,229);stop-opacity:1"/><stop offset="1" style="stop-color:rgb(170,215,238);stop-opacity:1"/></linearGradient>
    </defs>
</svg>
