<?xml version="1.0" encoding="UTF-8" standalone="no"?>
<!DOCTYPE svg PUBLIC "-//W3C//DTD SVG 1.1//EN" "http://www.w3.org/Graphics/SVG/1.1/DTD/svg11.dtd">
<svg width="100%" height="100%" viewBox="0 0 200 40" version="1.1" xmlns="http://www.w3.org/2000/svg" xmlns:xlink="http://www.w3.org/1999/xlink" xml:space="preserve" xmlns:serif="http://www.serif.com/" style="fill-rule:evenodd;clip-rule:evenodd;stroke-linejoin:round;stroke-miterlimit:2;">
    <g transform="matrix(1,0,0,1,-240,0)">
        <g transform="matrix(1,0,0,1,-44,-45)">
            <g transform="matrix(0.925441,0,0,1.25,28.6307,-58.75)">
                <ellipse cx="384" cy="99" rx="100" ry="16" style="fill:rgb(29,163,160);"/>
            </g>
            <g transform="matrix(1,0,0,0.96875,0,-35.4062)">
                <ellipse cx="384" cy="99" rx="100" ry="16" style="fill:rgb(150,238,236);"/>
            </g>
            <g transform="matrix(1,0,0,0.90625,0,-30.2187)">
                <ellipse cx="384" cy="99" rx="100" ry="16" style="fill:rgb(68,238,221);"/>
            </g>
            <g transform="matrix(1,0,0,1.04545,0,-45.3182)">
                <path d="M327.599,111.713C321.509,110.047 318,108.091 318,106C318,99.929 347.574,95 384,95C420.426,95 450,99.929 450,106C450,108.091 446.491,110.047 440.401,111.713C424.341,113.238 404.916,114.13 384,114.13C363.084,114.13 343.659,113.238 327.599,111.713Z" style="fill:url(#_Linear1);"/>
            </g>
            <g transform="matrix(1,0,0,1.1,0,-1.55)">
                <path d="M337.055,67.14C331.142,65.953 327.696,64.53 327.696,63C327.696,58.861 352.925,55.5 384,55.5C415.075,55.5 440.304,58.861 440.304,63C440.304,64.53 436.858,65.953 430.945,67.14C416.944,68.124 400.962,68.682 384,68.682C367.038,68.682 351.056,68.124 337.055,67.14Z" style="fill:rgb(68,238,223);"/>
            </g>
            <g transform="matrix(1,0,0,1,0,4)">
                <path d="M403.81,45.757C402.698,44.465 403.264,41.927 406.08,42.008C424.421,42.541 440.81,44.413 453.873,46.022C455.982,46.282 455.954,48.166 455.229,48.975C454.108,50.226 452.758,50.903 450.963,51.642C446.375,53.531 436.361,52.928 426.886,52.035C418.379,51.233 407.768,50.356 403.81,45.757Z" style="fill:rgb(166,253,246);"/>
            </g>
        </g>
    </g>
    <defs>
        <linearGradient id="_Linear1" x1="0" y1="0" x2="1" y2="0" gradientUnits="userSpaceOnUse" gradientTransform="matrix(130.885,0,0,125.194,318.557,104.565)"><stop offset="0" style="stop-color:rgb(39,201,182);stop-opacity:1"/><stop offset="1" style="stop-color:rgb(35,228,212);stop-opacity:1"/></linearGradient>
    </defs>
</svg>
